<?xml version="1.0" encoding="utf-8"?>
<!-- Generator: Adobe Illustrator 19.2.1, SVG Export Plug-In . SVG Version: 6.00 Build 0)  -->
<svg version="1.1" id="Layer_1" xmlns="http://www.w3.org/2000/svg" xmlns:xlink="http://www.w3.org/1999/xlink" x="0px" y="0px"
	 width="29px" height="29px" viewBox="0 0 29 29" enable-background="new 0 0 29 29" xml:space="preserve">
<g>
	<g>
		<path fill="#ffffff" d="M22.712,6.718h-3.755v0.943h3.755c0.785,0,1.423,0.635,1.423,1.415V20.93c0,0.78-0.638,1.415-1.423,1.415H6.267
			c-0.785,0-1.423-0.635-1.423-1.415V9.076c0-0.78,0.638-1.415,1.423-1.415h3.835V6.718H6.267c-1.308,0-2.372,1.058-2.372,2.358
			V20.93c0,1.3,1.064,2.358,2.372,2.358h7.748v1.349h-2.846v0.943h6.72v-0.943h-2.925v-1.349h7.748c1.308,0,2.372-1.058,2.372-2.358
			V9.076C25.083,7.776,24.019,6.718,22.712,6.718z M9.627,10.978c0,2.687,2.199,4.873,4.902,4.873c2.703,0,4.902-2.186,4.902-4.873
			c0-0.92-0.263-1.811-0.764-2.594l0.021-0.041l-4.159-4.923l-3.978,4.714l-0.196,0.245l0.016,0.032
			C9.883,9.186,9.627,10.068,9.627,10.978z M11.305,8.716l0.031-0.046l3.193-3.784l3.134,3.71l0.07,0.097
			c0.49,0.678,0.749,1.467,0.749,2.284c0,2.167-1.773,3.93-3.953,3.93c-2.18,0-3.953-1.763-3.953-3.93
			C10.576,10.169,10.828,9.387,11.305,8.716z M17.287,12.023c0.404-1.054,0.187-2.267-0.646-3.605l-0.807,0.497
			c0.668,1.073,0.859,2.004,0.568,2.768c-0.459,1.207-1.994,1.679-2.009,1.684l0.27,0.904
			C14.745,14.246,16.656,13.667,17.287,12.023z"/>
	</g>
</g>
</svg>
